<svg class="Caminho_3114" viewBox="261.013 337.188 60 60"><path id="Caminho_3114" d="M314.804 337.188h-24.61c-3.425 0-6.21 2.817-6.21 6.28v23.72a.629.629 0 01-.628.629h-5.116c-1.59 0-3.179.642-4.252 1.716l-.027.026-1.672 1.488a.63.63 0 01-.675.105.629.629 0 01-.371-.574v-3.39c0-.71-.578-1.286-1.287-1.286h-7.657c-.71 0-1.286.577-1.286 1.286v28.714c0 .71.577 1.286 1.286 1.286h7.657c.709 0 1.287-.577 1.287-1.286V393.7a.625.625 0 01.627-.629c.115 0 .228.032.329.093 1.477.905 3.843 2.11 7.328 2.11 1.75 0 3.243-.347 4.698-1.091a.63.63 0 01.811.213 6.165 6.165 0 005.157 2.792h24.611c3.424 0 6.209-2.817 6.209-6.28v-47.44c0-3.463-2.785-6.28-6.209-6.28zm-46.134 56.8a.628.628 0 01-.629.628h-3.828a.628.628 0 01-.628-.628v-24.885c0-.347.28-.63.628-.63h3.828a.63.63 0 01.629.63v24.885zm16.699-3.636c-1.733 1.313-3.102 2.35-5.842 2.35-3.556 0-5.685-1.481-7.396-2.672a39.55 39.55 0 00-.61-.413.626.626 0 01-.278-.522v-13.391c0-.179.075-.35.21-.47l4.285-3.817a3.591 3.591 0 012.502-1.029h5.116a.63.63 0 01.629.63v7.656a.629.629 0 01-.629.629h-1.914a1.286 1.286 0 000 2.571h17.284c1.395 0 2.487 1.084 2.487 2.467 0 1.42-1.139 2.618-2.487 2.618h-3.893c-4.987.003-7.47 1.884-9.464 3.393zm33.072.556c0 2.045-1.63 3.708-3.637 3.708h-24.61c-1.205 0-2.332-.622-3.02-1.665a.626.626 0 01.148-.847c1.873-1.407 3.733-2.573 7.52-2.573h3.884c1.418 0 2.74-.605 3.718-1.703a.632.632 0 01.47-.211h14.899c.347 0 .628.28.628.628v2.663zm0-6.49c0 .346-.28.627-.628.627h-13.408a.628.628 0 01-.62-.732c-.017-2.766-2.28-5.01-5.06-5.01h-11.54a.628.628 0 01-.628-.63v-35.205c0-2.045 1.63-3.707 3.636-3.707h24.611c2.006 0 3.637 1.662 3.637 3.707v40.95z"/></svg>