<svg xmlns="http://www.w3.org/2000/svg" width="61.497" height="64.035" viewBox="0 0 61.497 64.035"><g id="Grupo_13272" data-name="Grupo 13272" transform="translate(-48.901 -128.301)" fill="none" stroke="#bcbcbc" stroke-miterlimit="10" stroke-width="4"><path id="Caminho_3242" data-name="Caminho 3242" d="M57.13 162.363l-1.388 3.813a4.058 4.058 0 002.425 5.2l20.334 7.4a4.056 4.056 0 005.2-2.425l1.388-3.813" transform="translate(1.601 11.294)"/><path id="Caminho_3243" data-name="Caminho 3243" d="M97.041 137.965l-20.334-7.4a4.057 4.057 0 00-5.2 2.425L56.7 173.657l27.959 10.177 14.8-40.668a4.058 4.058 0 00-2.418-5.201z" transform="translate(2.027)"/><path id="Linha_1338" data-name="Linha 1338" transform="translate(68.781 181.634)" d="M0 0l5.083 1.85"/><path id="Caminho_3244" data-name="Caminho 3244" d="M60.7 143.14a6.763 6.763 0 00-3.7 10.173" transform="translate(1.741 4.519)"/><path id="Caminho_3245" data-name="Caminho 3245" d="M58.605 139.228a12.173 12.173 0 00-6.205 17.046" transform="translate(0 3.14)"/><path id="Caminho_3246" data-name="Caminho 3246" d="M88.6 153.4a6.763 6.763 0 01-3.7 10.172" transform="translate(11.964 8.135)"/><path id="Caminho_3247" data-name="Caminho 3247" d="M93.935 152.225a12.171 12.171 0 01-6.2 17.049" transform="translate(12.964 7.721)"/></g></svg>