<svg xmlns="http://www.w3.org/2000/svg" width="60" height="60" viewBox="0 0 60 60"><path id="logo-whatsapp" d="M83.258 40.718A29.819 29.819 0 0036.239 76.6L32 92l15.837-4.134a29.95 29.95 0 0014.277 3.616h.012A29.848 29.848 0 0092 61.749a29.488 29.488 0 00-8.742-21.031zM62.126 86.462h-.011a24.877 24.877 0 01-12.637-3.445l-.907-.536-9.4 2.454 2.508-9.119-.591-.937a24.852 24.852 0 1121.038 11.583zm13.619-18.507c-.746-.372-4.42-2.17-5.1-2.417s-1.183-.372-1.679.372-1.929 2.41-2.366 2.913-.871.557-1.617.185a20.418 20.418 0 01-6-3.687 22.4 22.4 0 01-4.152-5.146c-.435-.743-.047-1.146.327-1.516.336-.333.746-.868 1.12-1.3a5.026 5.026 0 00.746-1.24 1.364 1.364 0 00-.062-1.3c-.186-.371-1.679-4.029-2.3-5.517-.607-1.449-1.221-1.252-1.679-1.275C52.545 48 52.042 48 51.548 48a2.75 2.75 0 00-1.99.929 8.325 8.325 0 00-2.613 6.2c0 3.654 2.679 7.189 3.048 7.685s5.263 8 12.751 11.218A43.273 43.273 0 0067 75.593a10.277 10.277 0 004.7.295c1.434-.213 4.42-1.8 5.04-3.533a6.2 6.2 0 00.435-3.532c-.184-.31-.683-.497-1.43-.868z" transform="translate(-32 -31.999)" fill="#00BF6F" fill-rule="evenodd"/></svg>