<svg xmlns="http://www.w3.org/2000/svg" width="64" height="46.273" viewBox="0 0 64 46.273">
  <g id="Grupo_13271" data-name="Grupo 13271" transform="translate(-208 -55)">
    <path id="Caminho_3240" data-name="Caminho 3240" d="M270,96.545a2.727,2.727,0,0,1-2.727,2.727H212.727A2.727,2.727,0,0,1,210,96.545V59.727A2.727,2.727,0,0,1,212.727,57h54.545A2.727,2.727,0,0,1,270,59.727Z" fill="none" stroke="#bcbcbc" stroke-miterlimit="10" stroke-width="4"/>
    <path id="Caminho_3241" data-name="Caminho 3241" d="M264.455,60,245.3,79.159a9.545,9.545,0,0,1-13.5,0L214,61.364" transform="translate(1.455 1.091)" fill="none" stroke="#bcbcbc" stroke-linecap="round" stroke-miterlimit="10" stroke-width="4"/>
    <line id="Linha_1336" data-name="Linha 1336" y1="12.273" x2="12.273" transform="translate(215.455 81.545)" fill="none" stroke="#bcbcbc" stroke-linecap="round" stroke-miterlimit="10" stroke-width="4"/>
    <line id="Linha_1337" data-name="Linha 1337" x1="12.273" y1="12.273" transform="translate(252.273 81.545)" fill="none" stroke="#bcbcbc" stroke-linecap="round" stroke-miterlimit="10" stroke-width="4"/>
  </g>
</svg>
