<svg class="Caminho_3114" viewBox="261.013 337.188 60 60">
						<path id="Caminho_3114" d="M 314.8043518066406 337.18798828125 L 290.1934509277344 337.18798828125 C 286.7693786621094 337.18798828125 283.9848327636719 340.0052490234375 283.9848327636719 343.467529296875 L 283.9848327636719 367.18798828125 C 283.9848327636719 367.5357055664063 283.7025451660156 367.816650390625 283.356201171875 367.816650390625 L 278.2398071289063 367.816650390625 C 276.6498413085938 367.816650390625 275.0611877441406 368.4589233398438 273.988037109375 369.533447265625 L 273.9607238769531 369.5593872070313 L 272.2889404296875 371.047119140625 C 272.1702880859375 371.152099609375 272.0216369628906 371.2066650390625 271.8702697753906 371.2066650390625 C 271.7830200195313 371.2066650390625 271.6957092285156 371.1889038085938 271.6138916015625 371.152099609375 C 271.3875427246094 371.0498046875 271.2430114746094 370.826171875 271.2430114746094 370.5780029296875 L 271.2430114746094 367.18798828125 C 271.2430114746094 366.4789428710938 270.6648254394531 365.902099609375 269.9557495117188 365.902099609375 L 262.2988891601563 365.902099609375 C 261.5898132324219 365.902099609375 261.0130004882813 366.4789428710938 261.0130004882813 367.18798828125 L 261.0130004882813 395.902099609375 C 261.0130004882813 396.6112060546875 261.5898132324219 397.18798828125 262.2988891601563 397.18798828125 L 269.9557495117188 397.18798828125 C 270.6648254394531 397.18798828125 271.2430114746094 396.6112060546875 271.2430114746094 395.902099609375 L 271.2430114746094 393.6998291015625 C 271.2430114746094 393.4721069335938 271.3643798828125 393.2620849609375 271.5634460449219 393.151611328125 C 271.658935546875 393.0970458984375 271.7652893066406 393.0711669921875 271.8702697753906 393.0711669921875 C 271.9848022460938 393.0711669921875 272.0979919433594 393.1025390625 272.1989135742188 393.1638793945313 C 273.6757507324219 394.0693359375 276.0416259765625 395.2748413085938 279.527099609375 395.2748413085938 C 281.276611328125 395.2748413085938 282.7698059082031 394.9270629882813 284.2248229980469 394.1825561523438 C 284.316162109375 394.1361694335938 284.4143676757813 394.113037109375 284.5111694335938 394.113037109375 C 284.7157287597656 394.113037109375 284.9161682128906 394.2138671875 285.0361938476563 394.395263671875 C 286.1884765625 396.1448364257813 288.1166381835938 397.18798828125 290.1934509277344 397.18798828125 L 314.8043518066406 397.18798828125 C 318.2284545898438 397.18798828125 321.0130004882813 394.3707275390625 321.0130004882813 390.908447265625 L 321.0130004882813 343.467529296875 C 321.0130004882813 340.0052490234375 318.2284545898438 337.18798828125 314.8043518066406 337.18798828125 Z M 268.6697998046875 393.987548828125 C 268.6697998046875 394.3352661132813 268.388916015625 394.6161499023438 268.0411682128906 394.6161499023438 L 264.2134399414063 394.6161499023438 C 263.8657531738281 394.6161499023438 263.5848083496094 394.3352661132813 263.5848083496094 393.987548828125 L 263.5848083496094 369.1025390625 C 263.5848083496094 368.7562255859375 263.8657531738281 368.4739379882813 264.2134399414063 368.4739379882813 L 268.0411682128906 368.4739379882813 C 268.388916015625 368.4739379882813 268.6697998046875 368.7562255859375 268.6697998046875 369.1025390625 L 268.6697998046875 393.987548828125 Z M 285.368896484375 390.35205078125 C 283.6357116699219 391.665283203125 282.2666320800781 392.70166015625 279.527099609375 392.70166015625 C 275.9707336425781 392.70166015625 273.8420715332031 391.2207641601563 272.1307067871094 390.0302734375 C 271.9166564941406 389.881591796875 271.7202758789063 389.750732421875 271.5211791992188 389.6170654296875 C 271.3466491699219 389.5011596679688 271.2430114746094 389.3048706054688 271.2430114746094 389.0947875976563 L 271.2430114746094 375.7039184570313 C 271.2430114746094 375.5252685546875 271.3180236816406 375.3534545898438 271.4530029296875 375.2348022460938 L 275.737548828125 371.4166259765625 C 276.4002685546875 370.763427734375 277.3111877441406 370.3884887695313 278.2398071289063 370.3884887695313 L 283.356201171875 370.3884887695313 C 283.7025451660156 370.3884887695313 283.9848327636719 370.6707153320313 283.9848327636719 371.01708984375 L 283.9848327636719 378.6738891601563 C 283.9848327636719 379.0216674804688 283.7025451660156 379.3025512695313 283.356201171875 379.3025512695313 L 281.4416198730469 379.3025512695313 C 280.7325439453125 379.3025512695313 280.1557312011719 379.8793334960938 280.1557312011719 380.5885009765625 C 280.1557312011719 381.2975463867188 280.7325439453125 381.8743896484375 281.4416198730469 381.8743896484375 L 298.7257385253906 381.8743896484375 C 300.1206970214844 381.8743896484375 301.2130126953125 382.9584350585938 301.2130126953125 384.3411865234375 C 301.2130126953125 385.7607421875 300.0743408203125 386.9594116210938 298.7257385253906 386.9594116210938 L 294.8325500488281 386.9594116210938 C 289.8457336425781 386.9620971679688 287.3639221191406 388.842529296875 285.368896484375 390.35205078125 Z M 318.4411926269531 390.908447265625 C 318.4411926269531 392.9525146484375 316.8102722167969 394.6161499023438 314.8043518066406 394.6161499023438 L 290.1934509277344 394.6161499023438 C 288.9893493652344 394.6161499023438 287.8616333007813 393.994384765625 287.1743774414063 392.951171875 C 286.9916381835938 392.67431640625 287.0557250976563 392.3034057617188 287.3216247558594 392.1043701171875 C 289.1952514648438 390.6970825195313 291.0552978515625 389.5311889648438 294.8421020507813 389.5311889648438 L 298.7257385253906 389.5311889648438 C 300.1439208984375 389.5311889648438 301.4653015136719 388.9257202148438 302.4443664550781 387.8280029296875 C 302.5643920898438 387.6943969726563 302.7348327636719 387.6166381835938 302.9134521484375 387.6166381835938 L 317.8125305175781 387.6166381835938 C 318.1602478027344 387.6166381835938 318.4411926269531 387.8975219726563 318.4411926269531 388.2453002929688 L 318.4411926269531 390.908447265625 Z M 318.4411926269531 384.4175415039063 C 318.4411926269531 384.763916015625 318.1602478027344 385.0447998046875 317.8125305175781 385.0447998046875 L 304.4053039550781 385.0447998046875 C 304.237548828125 385.0447998046875 304.0766296386719 384.97802734375 303.9580078125 384.8579711914063 C 303.8407592773438 384.738037109375 303.7752990722656 384.5770874023438 303.776611328125 384.4093627929688 C 303.7779846191406 384.3766479492188 303.7807312011719 384.3452758789063 303.7848205566406 384.3125610351563 C 303.7684631347656 381.5470581054688 301.5048217773438 379.3025512695313 298.7257385253906 379.3025512695313 L 287.1852722167969 379.3025512695313 C 286.8375244140625 379.3025512695313 286.556640625 379.0216674804688 286.556640625 378.6738891601563 L 286.556640625 343.467529296875 C 286.556640625 341.4234619140625 288.1875610351563 339.76123046875 290.1934509277344 339.76123046875 L 314.8043518066406 339.76123046875 C 316.8102722167969 339.76123046875 318.4411926269531 341.4234619140625 318.4411926269531 343.467529296875 L 318.4411926269531 384.4175415039063 Z">
						</path>
					</svg>
